<?xml version="1.0" encoding="UTF-8"?>
<svg version="1.1" xmlns="http://www.w3.org/2000/svg" width="250" height="250">
<path d="M0 0 C12.86365659 0.89642206 25.25795894 1.09808019 38.01757812 -0.84179688 C43.15517936 -1.50429953 46.0942013 -1.20384799 50.61523438 1.7109375 C53.08091997 3.75150489 53.57181412 4.58067674 54.61523438 7.7109375 C54.86537685 10.8733448 54.84638568 14.03964435 54.86523438 17.2109375 C54.88585937 18.07847656 54.90648438 18.94601563 54.92773438 19.83984375 C54.93546875 21.09087891 54.93546875 21.09087891 54.94335938 22.3671875 C54.95270508 23.12837891 54.96205078 23.88957031 54.97167969 24.67382812 C54.51232272 27.29908467 53.78236381 28.18356909 51.61523438 29.7109375 C49.70507812 29.88378906 49.70507812 29.88378906 47.55273438 29.6015625 C46.75480469 29.50617187 45.956875 29.41078125 45.13476562 29.3125 C43.88759766 29.13847656 43.88759766 29.13847656 42.61523438 28.9609375 C40.99035543 28.75684642 39.36535372 28.55373046 37.74023438 28.3515625 C36.90613037 28.24642334 36.07202637 28.14128418 35.21264648 28.03295898 C34.35550049 27.92669189 33.49835449 27.8204248 32.61523438 27.7109375 C31.72779541 27.60015869 30.84035645 27.48937988 29.92602539 27.37524414 C23.31364556 26.64994707 17.15077113 26.89770682 10.55273438 27.6484375 C3.53635426 28.41377101 -3.32332066 28.85723419 -10.38476562 28.7109375 C-10.32675781 29.50757812 -10.26875 30.30421875 -10.20898438 31.125 C-9.7944132 40.86150028 -9.7944132 40.86150028 -12.63476562 44.3359375 C-16.59637519 47.75732758 -18.10018257 48.7109375 -23.38476562 48.7109375 C-23.30336787 53.21164889 -23.19056606 57.71105679 -23.07226562 62.2109375 C-23.03842773 64.11359375 -23.03842773 64.11359375 -23.00390625 66.0546875 C-22.79011099 77.18701556 -22.79011099 77.18701556 -17.63085938 86.76953125 C-17.03402344 87.22457031 -16.4371875 87.67960937 -15.82226562 88.1484375 C-15.22285156 88.62152344 -14.6234375 89.09460938 -14.00585938 89.58203125 C-10.21610952 92.22115826 -6.42457246 92.05924194 -1.94726562 92.2734375 C-0.68692505 92.3338623 -0.68692505 92.3338623 0.59887695 92.39550781 C6.66492191 92.66398177 12.73131467 92.87324392 18.80273438 92.9609375 C19.94923462 92.99296265 19.94923462 92.99296265 21.11889648 93.02563477 C28.62502873 93.07089705 35.10437207 91.0643466 40.61523438 85.7109375 C44.57718082 80.05101401 44.77115503 75.05581175 44.86132812 68.296875 C44.8942416 66.63280675 44.92745364 64.96874437 44.9609375 63.3046875 C45.00849947 60.68656126 45.05299497 58.06846302 45.09204102 55.45019531 C45.13162472 52.91968229 45.18317142 50.38963409 45.23632812 47.859375 C45.24474228 47.07291595 45.25315643 46.28645691 45.26182556 45.47616577 C45.38848574 39.93768614 45.38848574 39.93768614 47.61523438 37.7109375 C50.67773438 37.9609375 50.67773438 37.9609375 53.61523438 38.7109375 C55.21012334 41.90071543 54.82071759 45.36175469 54.85351562 48.8671875 C54.86158737 49.68409058 54.86965912 50.50099365 54.87797546 51.34265137 C54.89182418 53.0776965 54.90254281 54.81276896 54.91040039 56.54785156 C54.92748791 59.1730727 54.97134928 61.79699248 55.015625 64.421875 C55.12141006 75.77340507 54.49861363 85.4315934 46.40039062 94.171875 C42.9917058 97.11065361 38.25979272 100.7109375 33.61523438 100.7109375 C33.61523438 104.0109375 33.61523438 107.3109375 33.61523438 110.7109375 C34.43765625 110.73671875 35.26007813 110.7625 36.10742188 110.7890625 C48.57852794 111.42269837 57.70008688 114.70634037 66.61523438 123.7109375 C69.90510774 128.08945987 72.87668556 132.49529107 74.61523438 137.7109375 C82.86523438 138.0409375 91.11523438 138.3709375 99.61523438 138.7109375 C99.61523438 138.0509375 99.61523438 137.3909375 99.61523438 136.7109375 C98.77992188 136.59878906 98.77992188 136.59878906 97.92773438 136.484375 C89.71460392 135.06927482 84.45826019 131.25423559 79.24023438 124.8359375 C75.29828956 119.22295086 74.27251086 113.5654079 74.61523438 106.7109375 C73.39835938 106.7934375 72.18148437 106.8759375 70.92773438 106.9609375 C67.5840716 106.96686598 66.66091818 106.73912538 63.67773438 104.8984375 C60.28395474 101.29897425 60.45495214 98.09360272 60.42773438 93.3359375 C60.41355469 92.21445313 60.399375 91.09296875 60.38476562 89.9375 C60.69419358 85.60550857 61.52938315 82.79678872 64.61523438 79.7109375 C64.92123344 77.15728678 64.92123344 77.15728678 64.88867188 74.1796875 C64.90929687 73.05820313 64.92992188 71.93671875 64.95117188 70.78125 C64.97687087 68.43236151 64.99530205 66.08338034 65.00585938 63.734375 C65.19184358 54.66247866 66.4471914 45.95554108 73.24023438 39.3359375 C73.830625 38.73007812 74.42101562 38.12421875 75.02929688 37.5 C82.85300942 32.08722002 90.62127518 31.11019691 99.93945312 31.1796875 C101.08509232 31.1758606 102.23073151 31.17203369 103.41108704 31.16809082 C105.81711717 31.16538432 108.22317737 31.17265637 110.62915039 31.18945312 C114.30291317 31.21093855 117.9747336 31.18957604 121.6484375 31.1640625 C123.995447 31.16670484 126.3424553 31.17182787 128.68945312 31.1796875 C129.78126389 31.17159058 130.87307465 31.16349365 131.99797058 31.15515137 C138.42356822 31.23394016 142.38420076 31.89361262 147.61523438 35.7109375 C149.79976487 38.11392104 150.58082057 39.60769608 151.61523438 42.7109375 C152.50210938 43.1234375 153.38898438 43.5359375 154.30273438 43.9609375 C158.89253686 46.38573881 162.28191643 50.04430161 164.61523438 54.7109375 C164.73318072 56.5613806 164.79417987 58.41560905 164.82617188 60.26953125 C164.85453125 61.37748047 164.88289062 62.48542969 164.91210938 63.62695312 C164.96410253 65.97054453 165.0084006 68.31431956 165.04492188 70.65820312 C165.09132812 72.32206055 165.09132812 72.32206055 165.13867188 74.01953125 C165.15849121 75.03845459 165.17831055 76.05737793 165.19873047 77.10717773 C165.67770594 80.10147631 166.38810043 80.77576457 168.61523438 82.7109375 C169.80906364 86.29242531 169.85726799 89.31042276 169.92773438 93.0859375 C169.98380859 95.04660156 169.98380859 95.04660156 170.04101562 97.046875 C169.55554978 101.22455357 168.56596092 102.78758319 165.61523438 105.7109375 C163.20977799 106.91366569 161.66526485 106.81165222 158.99023438 106.7734375 C158.17296875 106.76441406 157.35570312 106.75539063 156.51367188 106.74609375 C155.8871875 106.73449219 155.26070312 106.72289062 154.61523438 106.7109375 C154.65003906 107.2678125 154.68484375 107.8246875 154.72070312 108.3984375 C155.0398526 117.39541311 152.7196524 123.33328804 146.58007812 129.953125 C143.56759112 132.6481929 140.34623072 134.22790548 136.61523438 135.7109375 C135.62523437 136.1234375 134.63523438 136.5359375 133.61523438 136.9609375 C132.95523438 137.2084375 132.29523438 137.4559375 131.61523438 137.7109375 C131.67710937 138.6184375 131.73898438 139.5259375 131.80273438 140.4609375 C131.59118526 144.12778889 131.18788165 145.16728803 128.61523438 147.7109375 C126.01701355 148.20300293 126.01701355 148.20300293 122.86206055 148.19335938 C121.08958199 148.20357117 121.08958199 148.20357117 119.28129578 148.21398926 C118.0031752 148.20266968 116.72505463 148.1913501 115.40820312 148.1796875 C113.40156215 148.19045889 111.39492102 148.20125235 109.38828754 148.21334076 C105.14755753 148.23240772 100.90681769 148.21592619 96.66607666 148.20587158 C93.1802506 148.19897371 89.69483964 148.19985942 86.20906067 148.2208252 C83.59474525 148.2348279 80.98026199 148.23114918 78.36601257 148.20788574 C69.65584295 148.18565007 69.65584295 148.18565007 62.61523438 152.7109375 C59.56729162 155.8580541 59.03353775 158.6737136 58.42773438 162.9609375 C58.26917969 164.03859375 58.110625 165.11625 57.94726562 166.2265625 C57.78291016 167.45632812 57.78291016 167.45632812 57.61523438 168.7109375 C58.48212891 168.68999023 59.34902344 168.66904297 60.2421875 168.64746094 C63.49247228 168.57884188 66.74238495 168.52892299 69.99316406 168.49121094 C71.39367911 168.4712312 72.79411219 168.4440373 74.19433594 168.40917969 C82.29078093 168.21283223 88.63286156 168.22226926 95.61523438 172.7109375 C96.94144513 173.39166304 98.27325463 174.06185154 99.61523438 174.7109375 C100.08574219 174.36160156 100.55625 174.01226562 101.04101562 173.65234375 C101.66363281 173.19730469 102.28625 172.74226562 102.92773438 172.2734375 C103.54261719 171.82097656 104.1575 171.36851562 104.79101562 170.90234375 C107.7445171 168.97339739 110.2951527 168.58064068 113.73193359 168.53393555 C114.55644012 168.52110031 115.38094666 168.50826508 116.23043823 168.49504089 C117.11796783 168.48765396 118.00549744 168.48026703 118.91992188 168.47265625 C119.83605255 168.4645845 120.75218323 168.45651276 121.69607544 168.44819641 C123.63444126 168.43436877 125.5728313 168.42364071 127.51123047 168.41577148 C130.47214885 168.39854273 133.43195504 168.35464336 136.39257812 168.31054688 C138.27668451 168.30042093 140.16080037 168.29190452 142.04492188 168.28515625 C143.37014359 168.25889412 143.37014359 168.25889412 144.72213745 168.23210144 C148.88562237 168.24676249 151.0465528 168.3546997 154.65087891 170.61254883 C157.69686793 173.86637379 157.70340789 175.79646105 157.86523438 180.1484375 C158.03977608 183.09072268 158.03977608 183.09072268 158.61523438 185.7109375 C160.93528468 187.73735858 160.93528468 187.73735858 163.61523438 188.7109375 C165.71067244 191.70442045 165.81520768 194.11141809 165.61523438 197.7109375 C167.59523437 197.7109375 169.57523438 197.7109375 171.61523438 197.7109375 C171.54607774 192.56927537 171.4579771 187.42840486 171.3527832 182.28735352 C171.31965671 180.54069851 171.29158701 178.79393962 171.26879883 177.04711914 C171.23502556 174.5270588 171.1827009 172.00793998 171.12695312 169.48828125 C171.11736824 168.32848 171.11736824 168.32848 171.10758972 167.14524841 C170.96938388 161.97678588 170.02909134 158.30664028 167.61523438 153.7109375 C163.87957956 150.24862328 161.37437421 148.62091087 156.33398438 148.46484375 C155.49222656 148.43197266 154.65046875 148.39910156 153.78320312 148.36523438 C152.00468726 148.30404093 150.22603288 148.24674844 148.44726562 148.19335938 C147.60550781 148.15919922 146.76375 148.12503906 145.89648438 148.08984375 C145.12369141 148.0647876 144.35089844 148.03973145 143.5546875 148.01391602 C141.61523438 147.7109375 141.61523438 147.7109375 139.61523438 145.7109375 C139.49023438 143.0859375 139.49023438 143.0859375 139.61523438 140.7109375 C144.39061361 138.20167509 148.70288084 138.54318306 153.92773438 138.8359375 C154.74435547 138.85914063 155.56097656 138.88234375 156.40234375 138.90625 C163.12351105 139.24900275 168.37976232 141.04119631 173.60351562 145.3515625 C174.04050781 145.88265625 174.4775 146.41375 174.92773438 146.9609375 C175.60255859 147.74210937 175.60255859 147.74210937 176.29101562 148.5390625 C180.19853723 154.94785899 181.04802932 160.69263439 180.90820312 168.0234375 C180.90395828 168.87776367 180.89971344 169.73208984 180.89533997 170.61230469 C180.87869141 173.31218432 180.84106661 176.01128761 180.80273438 178.7109375 C180.78766961 180.55337455 180.77398436 182.39582343 180.76171875 184.23828125 C180.72883344 188.72946089 180.67714894 193.22006806 180.61523438 197.7109375 C181.31390625 197.68773437 182.01257813 197.66453125 182.73242188 197.640625 C183.6425 197.62257812 184.55257812 197.60453125 185.49023438 197.5859375 C186.39515625 197.56273437 187.30007812 197.53953125 188.23242188 197.515625 C190.61523438 197.7109375 190.61523438 197.7109375 192.61523438 199.7109375 C192.74023438 202.8359375 192.74023438 202.8359375 192.61523438 205.7109375 C189.2430389 207.39703524 185.41998056 206.86274475 181.71032715 206.86483765 C180.77645691 206.8692199 179.84258668 206.87360215 178.88041735 206.8781172 C175.73147417 206.89153858 172.582559 206.89769162 169.43359375 206.90380859 C167.18354159 206.91170712 164.9334907 206.91997591 162.68344116 206.92858887 C155.27530127 206.95484435 147.86715562 206.97012297 140.45898438 206.984375 C137.91032406 206.98973379 135.36166378 206.9951113 132.81300354 207.00050735 C122.21009559 207.02214388 111.60718899 207.04103124 101.00426483 207.05212975 C98.25186662 207.0550594 95.49946844 207.05802106 92.74707031 207.06103516 C92.06298302 207.06178121 91.37889573 207.06252726 90.67407852 207.06329592 C79.60372274 207.07593693 68.53352804 207.10914162 57.46324748 207.15083699 C46.09294365 207.19331039 34.72275198 207.21642396 23.35235834 207.22205031 C16.97027825 207.22570335 10.58847089 207.23771975 4.20646667 207.27015305 C-1.80179615 207.30024768 -7.80962144 207.30654014 -13.81794357 207.29476929 C-16.01973985 207.29454865 -18.2215565 207.30284515 -20.42328262 207.32042313 C-43.31161151 207.49316408 -43.31161151 207.49316408 -51.29016876 199.89681053 C-55.987863 194.93021603 -57.6222578 190.23449933 -57.70703125 183.39526367 C-57.73585388 181.51257027 -57.73585388 181.51257027 -57.76525879 179.59184265 C-57.77495632 178.22920464 -57.78351359 176.86655811 -57.79101562 175.50390625 C-57.79667038 174.81239283 -57.80232513 174.1208794 -57.80815125 173.40841103 C-57.83806118 169.74873977 -57.8565663 166.08922467 -57.86523438 162.42944336 C-57.87619283 158.66653328 -57.92423982 154.90507473 -57.98117828 151.14261913 C-58.01859611 148.23334192 -58.02885075 145.32440869 -58.03190613 142.41491127 C-58.03792364 141.02869037 -58.05386043 139.64247295 -58.08027649 138.25649071 C-58.21560497 130.6103807 -58.16349846 125.03816746 -52.90612793 119.17329407 C-52.15305359 118.44942757 -52.15305359 118.44942757 -51.38476562 117.7109375 C-50.60101563 116.9478125 -49.81726562 116.1846875 -49.00976562 115.3984375 C-41.41741253 110.51763908 -34.68394368 110.31819351 -25.88476562 110.5234375 C-24.221875 110.54374023 -24.221875 110.54374023 -22.52539062 110.56445312 C-19.81133331 110.59954869 -17.0983137 110.6487148 -14.38476562 110.7109375 C-14.43987536 108.94178347 -14.52508669 107.17354931 -14.62304688 105.40625 C-14.66727783 104.42156738 -14.71150879 103.43688477 -14.75708008 102.42236328 C-15.14546868 99.58628027 -15.14546868 99.58628027 -17.37280273 97.87719727 C-18.91148041 96.97387101 -20.4636906 96.09338262 -22.02539062 95.23046875 C-27.10268211 91.96049129 -29.63882269 86.64360783 -31.75976562 81.1484375 C-32.47598001 77.20925839 -32.52499572 73.70749518 -32.38476562 69.7109375 C-33.04863281 69.76894531 -33.7125 69.82695313 -34.39648438 69.88671875 C-41.67833203 70.25878396 -41.67833203 70.25878396 -45.44726562 67.3359375 C-48.46109434 63.2526857 -48.59706399 60.3420643 -48.63476562 55.3984375 C-48.66054688 54.08230469 -48.68632813 52.76617187 -48.71289062 51.41015625 C-48.37002719 47.54477924 -47.5732749 45.8334318 -45.38476562 42.7109375 C-44.1286844 38.94269382 -44.7588443 35.91869678 -45.32226562 32.0859375 C-47.72090371 13.97884913 -47.72090371 13.97884913 -42.38476562 5.7109375 C-31.7127611 -5.85848559 -14.23205101 -1.04222838 0 0 Z M-34.50976562 10.2734375 C-37.97242344 16.62164349 -37.43277701 22.61283927 -36.50976562 29.5234375 C-36.41824219 30.28591797 -36.32671875 31.04839844 -36.23242188 31.83398438 C-35.77068097 35.89970513 -35.77068097 35.89970513 -34.38476562 39.7109375 C-32.28123068 39.7919581 -30.1768061 39.85013657 -28.07226562 39.8984375 C-26.90050781 39.93324219 -25.72875 39.96804687 -24.52148438 40.00390625 C-21.50347621 39.95571408 -21.50347621 39.95571408 -19.70043945 38.6730957 C-17.67143524 35.64709703 -18.06956591 32.53026816 -18.19726562 29.0234375 C-18.21080078 28.32154297 -18.22433594 27.61964844 -18.23828125 26.89648438 C-18.2735638 25.16763921 -18.32736979 23.43918985 -18.38476562 21.7109375 C-13.63890847 21.27623779 -8.89242926 20.84936982 -4.14526367 20.42919922 C-2.53635484 20.28575008 -0.92762274 20.14030197 0.6809082 19.99267578 C13.31639658 18.83504612 25.80332347 17.8701367 38.42773438 19.7109375 C39.13220703 19.80632813 39.83667969 19.90171875 40.5625 20 C42.2478083 20.22929365 43.93171044 20.46889041 45.61523438 20.7109375 C45.61523438 17.0809375 45.61523438 13.4509375 45.61523438 9.7109375 C41.00534996 7.40599529 39.73805735 7.73447603 34.80273438 8.5859375 C21.77000467 10.83148962 8.48131919 9.64155495 -4.63476562 8.7109375 C-15.64555234 7.92878357 -15.64555234 7.92878357 -26.67382812 7.48828125 C-27.5163916 7.46757568 -28.35895508 7.44687012 -29.22705078 7.42553711 C-31.8156947 7.76793638 -32.73995508 8.37979636 -34.50976562 10.2734375 Z M78.30273438 47.0234375 C73.75057348 54.27317523 73.2132843 59.69690505 73.42773438 68.1484375 C73.44126953 69.16615234 73.45480469 70.18386719 73.46875 71.23242188 C73.50386828 73.72581964 73.55304879 76.21809262 73.61523438 78.7109375 C74.27523437 78.7109375 74.93523437 78.7109375 75.61523438 78.7109375 C75.81117188 78.17984375 76.00710937 77.64875 76.20898438 77.1015625 C76.50804687 76.39515625 76.80710938 75.68875 77.11523438 74.9609375 C77.39367187 74.26484375 77.67210937 73.56875 77.95898438 72.8515625 C81.08805528 68.80738595 85.44682723 67.00380772 90.40393066 66.33428955 C93.65785934 66.18351048 96.88912916 66.15648417 100.14648438 66.1796875 C101.33697388 66.1758606 102.52746338 66.17203369 103.75402832 66.16809082 C106.26197153 66.16537829 108.76994335 66.17269304 111.27783203 66.18945312 C115.10318444 66.21087004 118.9266587 66.18962673 122.75195312 66.1640625 C125.19596766 66.16670589 127.63998104 66.1718311 130.08398438 66.1796875 C131.22065552 66.17159058 132.35732666 66.16349365 133.52844238 66.15515137 C140.34037649 66.23506948 144.82234933 67.04608581 150.61523438 70.7109375 C152.27148438 72.8515625 152.27148438 72.8515625 153.11523438 74.9609375 C153.41429687 75.66734375 153.71335937 76.37375 154.02148438 77.1015625 C154.21742188 77.63265625 154.41335937 78.16375 154.61523438 78.7109375 C154.94523437 78.7109375 155.27523437 78.7109375 155.61523438 78.7109375 C157.00986317 71.24292525 157.62642435 63.55345941 155.67773438 56.1484375 C153.05411503 53.04779646 150.43455336 52.28020995 146.70507812 50.84765625 C143.20188013 48.94217846 142.78043678 46.41216867 141.61523438 42.7109375 C139.11096702 40.20667014 138.29484828 40.450484 134.83349609 40.42041016 C133.34086746 40.4012706 133.34086746 40.4012706 131.81808472 40.38174438 C130.73794098 40.37951874 129.65779724 40.37729309 128.54492188 40.375 C127.43472687 40.3683432 126.32453186 40.3616864 125.18069458 40.35482788 C122.82523254 40.34468438 120.46974167 40.34001138 118.11425781 40.34033203 C114.52555153 40.33598033 110.93809611 40.29973656 107.34960938 40.26171875 C105.06055107 40.25584654 102.77148694 40.25187986 100.48242188 40.25 C98.88042435 40.22844345 98.88042435 40.22844345 97.24606323 40.20645142 C89.57141655 40.25302356 83.83953436 41.48663752 78.30273438 47.0234375 Z M-38.38476562 48.7109375 C-38.38476562 53.0009375 -38.38476562 57.2909375 -38.38476562 61.7109375 C-36.40476562 61.7109375 -34.42476562 61.7109375 -32.38476562 61.7109375 C-32.38476562 57.4209375 -32.38476562 53.1309375 -32.38476562 48.7109375 C-34.36476563 48.7109375 -36.34476563 48.7109375 -38.38476562 48.7109375 Z M85.40820312 76.80200195 C83.17239146 80.42941154 82.99763926 82.66839005 83.02148438 86.91796875 C83.02144409 87.60219406 83.02140381 88.28641937 83.0213623 88.99137878 C83.02670469 90.4345318 83.04423327 91.87768532 83.07324219 93.32055664 C83.11492004 95.50694782 83.11432082 97.69023333 83.10742188 99.87695312 C83.14326296 107.8710585 83.30939737 114.91423282 88.00976562 121.734375 C93.34874358 126.82331818 98.38005126 127.71787315 105.61523438 128.7109375 C107.19796038 130.29366351 106.96259184 132.09127753 107.17773438 134.2734375 C107.26152344 135.09972656 107.3453125 135.92601562 107.43164062 136.77734375 C107.49222656 137.41542969 107.5528125 138.05351562 107.61523438 138.7109375 C112.39978195 140.03588914 116.86253476 140.29517071 121.61523438 138.7109375 C122.11023438 133.7609375 122.11023438 133.7609375 122.61523438 128.7109375 C123.411875 128.61296875 124.20851562 128.515 125.02929688 128.4140625 C132.62564706 127.34207148 137.52285593 126.06101415 142.86523438 120.2734375 C146.22531051 115.35332602 146.9400081 111.05611175 146.98632812 105.1796875 C146.9953566 104.46615112 147.00438507 103.75261475 147.01368713 103.01745605 C147.02813918 101.51477219 147.03706378 100.01202613 147.04077148 98.50927734 C147.05270101 96.21734716 147.10195436 93.92808418 147.15234375 91.63671875 C147.16180583 90.17188805 147.1690419 88.70704094 147.17382812 87.2421875 C147.19336044 86.56184448 147.21289276 85.88150146 147.23301697 85.18054199 C147.20054048 81.73841081 146.62438363 79.72590311 144.82446289 76.78173828 C139.94031986 73.63017486 135.40783521 73.99527544 129.70898438 74.046875 C128.5515271 74.04209137 127.39406982 74.03730774 126.20153809 74.03237915 C123.75722899 74.0289805 121.31287443 74.03818025 118.86865234 74.05908203 C115.12820029 74.08584473 111.39074938 74.05932945 107.65039062 74.02734375 C105.27408192 74.03064785 102.89777508 74.03705408 100.52148438 74.046875 C99.40366577 74.03675385 98.28584717 74.02663269 97.13415527 74.01620483 C92.34446117 74.08847231 89.48133361 74.14621917 85.40820312 76.80200195 Z M69.61523438 87.7109375 C69.61523438 91.3409375 69.61523438 94.9709375 69.61523438 98.7109375 C71.26523438 98.7109375 72.91523438 98.7109375 74.61523438 98.7109375 C74.61523438 95.0809375 74.61523438 91.4509375 74.61523438 87.7109375 C72.96523437 87.7109375 71.31523437 87.7109375 69.61523438 87.7109375 Z M154.61523438 87.7109375 C154.61523438 91.3409375 154.61523438 94.9709375 154.61523438 98.7109375 C156.59523437 98.7109375 158.57523438 98.7109375 160.61523438 98.7109375 C160.61523438 95.0809375 160.61523438 91.4509375 160.61523438 87.7109375 C158.63523438 87.7109375 156.65523437 87.7109375 154.61523438 87.7109375 Z M-6.38476562 101.7109375 C-6.38476562 104.6809375 -6.38476562 107.6509375 -6.38476562 110.7109375 C3.84523438 110.7109375 14.07523438 110.7109375 24.61523438 110.7109375 C24.61523438 107.7409375 24.61523438 104.7709375 24.61523438 101.7109375 C14.38523437 101.7109375 4.15523437 101.7109375 -6.38476562 101.7109375 Z M-47.84936523 126.67016602 C-50.37215251 131.90180166 -49.97539482 137.67998739 -49.95117188 143.36328125 C-49.96046974 145.18443199 -49.96046974 145.18443199 -49.96995544 147.04237366 C-49.97704188 149.6033549 -49.97390031 152.16438233 -49.96118164 154.7253418 C-49.94732317 158.63221481 -49.98140179 162.5366886 -50.01953125 166.44335938 C-50.02048258 168.93750058 -50.01862288 171.43164477 -50.01367188 173.92578125 C-50.02693008 175.08746323 -50.04018829 176.2491452 -50.05384827 177.44602966 C-49.97496668 184.35645607 -49.30083746 189.57162921 -44.38476562 194.7109375 C-40.12445315 197.62916167 -36.77508547 198.07410704 -31.67382812 198.00390625 C-29.80791016 197.9894043 -29.80791016 197.9894043 -27.90429688 197.97460938 C-25.97650391 197.9369043 -25.97650391 197.9369043 -24.00976562 197.8984375 C-22.70136719 197.88490234 -21.39296875 197.87136719 -20.04492188 197.85742188 C-16.82469262 197.82216389 -13.60467591 197.76835994 -10.38476562 197.7109375 C-10.38476562 190.4509375 -10.38476562 183.1909375 -10.38476562 175.7109375 C-14.67476562 175.3809375 -18.96476562 175.0509375 -23.38476562 174.7109375 C-24.42424313 171.592505 -24.49971401 169.43618164 -24.48242188 166.16796875 C-24.47919922 165.09482422 -24.47597656 164.02167969 -24.47265625 162.91601562 C-24.46427734 161.79646484 -24.45589844 160.67691406 -24.44726562 159.5234375 C-24.44275391 158.39228516 -24.43824219 157.26113281 -24.43359375 156.09570312 C-24.42180061 153.30072823 -24.40534212 150.5058593 -24.38476562 147.7109375 C-22.38521816 147.66839394 -20.38434926 147.67012967 -18.38476562 147.7109375 C-16.87055561 149.22514751 -17.17166707 150.63566518 -17.06835938 152.74609375 C-17.02646484 153.55498047 -16.98457031 154.36386719 -16.94140625 155.19726562 C-16.90208984 156.04740234 -16.86277344 156.89753906 -16.82226562 157.7734375 C-16.77908203 158.62744141 -16.73589844 159.48144531 -16.69140625 160.36132812 C-16.58499861 162.47765787 -16.48434832 164.59427563 -16.38476562 166.7109375 C-15.54171875 166.75992188 -14.69867188 166.80890625 -13.83007812 166.859375 C-12.734375 166.93414062 -11.63867188 167.00890625 -10.50976562 167.0859375 C-9.41921875 167.15554687 -8.32867187 167.22515625 -7.20507812 167.296875 C-4.38476562 167.7109375 -4.38476562 167.7109375 -2.38476562 169.7109375 C-1.75976562 171.8359375 -1.75976562 171.8359375 -1.38476562 173.7109375 C4.22620579 174.42022508 9.83688132 174.85096232 15.49023438 175.0234375 C17.09511719 175.07951172 17.09511719 175.07951172 18.73242188 175.13671875 C22.2690183 174.61437592 23.39379127 173.43140043 25.61523438 170.7109375 C24.33326172 169.42509766 24.33326172 169.42509766 23.02539062 168.11328125 C21.90872851 166.95908427 20.79288594 165.804094 19.67773438 164.6484375 C18.83178711 163.80635742 18.83178711 163.80635742 17.96875 162.94726562 C14.1249256 158.91930592 12.83591122 156.29904479 12.61523438 150.7109375 C16.9360882 150.87317231 19.67543254 151.33796992 22.71289062 154.40625 C23.71843919 155.5343213 24.70631222 156.67834873 25.67773438 157.8359375 C26.19650146 158.4247168 26.71526855 159.01349609 27.24975586 159.62011719 C29.94317935 162.69081474 32.55650829 165.82857233 35.17773438 168.9609375 C37.38379659 171.91167379 37.38379659 171.91167379 40.61523438 172.7109375 C41.97441295 171.74635916 43.30608159 170.74239121 44.61523438 169.7109375 C45.93781595 169.3372172 47.27100499 168.99718259 48.61523438 168.7109375 C48.71320313 167.8653125 48.81117187 167.0196875 48.91210938 166.1484375 C50.11485005 157.02419788 51.18075922 150.10594661 58.67773438 144.2734375 C61.06485326 142.59191614 62.8135182 141.64484289 65.61523438 140.7109375 C64.37573431 134.29973027 59.81861245 129.42745293 54.86523438 125.3984375 C45.07656659 118.79701049 34.21480342 119.25073091 22.85742188 119.27734375 C21.14209793 119.27277426 19.42677581 119.26746642 17.7114563 119.26145935 C14.13259395 119.25256725 10.55395526 119.25490844 6.97509766 119.26489258 C2.40443317 119.27640584 -2.16546141 119.25611514 -6.73602486 119.22697544 C-10.27237793 119.20857768 -13.80854742 119.20891251 -17.34493637 119.21461296 C-19.02973388 119.21476559 -20.71454429 119.2087702 -22.39929581 119.19632149 C-36.6390705 118.76911131 -36.6390705 118.76911131 -47.84936523 126.67016602 Z M48.61523438 177.7109375 C47.815703 180.99789983 47.51864502 182.42116942 48.61523438 185.7109375 C63.46523437 185.7109375 78.31523437 185.7109375 93.61523438 185.7109375 C90.55762956 180.37291822 90.55762956 180.37291822 85.61523438 177.7109375 C82.67749697 177.45854213 79.9632767 177.36006513 77.03320312 177.41796875 C76.2190242 177.42221359 75.40484528 177.42645844 74.56599426 177.43083191 C71.97789769 177.44755997 69.39059366 177.48520038 66.80273438 177.5234375 C65.04298003 177.53849197 63.28321343 177.55217904 61.5234375 177.56445312 C57.22040001 177.59744414 52.91795134 177.6491851 48.61523438 177.7109375 Z M104.61523438 182.7109375 C104.28523437 183.7009375 103.95523438 184.6909375 103.61523438 185.7109375 C118.79523438 185.7109375 133.97523438 185.7109375 149.61523438 185.7109375 C149.61523438 183.0709375 149.61523438 180.4309375 149.61523438 177.7109375 C144.17098221 177.58697912 138.72755827 177.4964301 133.28222656 177.4362793 C131.43149499 177.41119505 129.58086191 177.37711905 127.73046875 177.33374023 C125.06420555 177.27281755 122.39925613 177.24466759 119.73242188 177.22265625 C118.91031219 177.19684982 118.08820251 177.1710434 117.24118042 177.14445496 C111.32367949 177.14159117 108.68738485 178.3703681 104.61523438 182.7109375 Z M28.26367188 180.6953125 C23.30791943 184.17077525 17.01707839 183.1236655 11.24023438 182.9609375 C10.02722656 182.94289062 8.81421875 182.92484375 7.56445312 182.90625 C4.58103978 182.85926711 1.59803446 182.78752866 -1.38476562 182.7109375 C-1.38476562 187.6609375 -1.38476562 192.6109375 -1.38476562 197.7109375 C9.50523438 197.7109375 20.39523438 197.7109375 31.61523438 197.7109375 C32.27523437 195.0709375 32.93523437 192.4309375 33.61523438 189.7109375 C35.25490647 188.34454408 36.91851051 187.00580571 38.61523438 185.7109375 C39.03393991 183.04165629 39.03393991 183.04165629 38.61523438 180.7109375 C33.23580494 178.202214 33.23580494 178.202214 28.26367188 180.6953125 Z M41.61523438 193.7109375 C41.28523438 195.0309375 40.95523438 196.3509375 40.61523438 197.7109375 C58.10523438 197.7109375 75.59523438 197.7109375 93.61523438 197.7109375 C93.61523438 196.3909375 93.61523438 195.0709375 93.61523438 193.7109375 C76.45523438 193.7109375 59.29523438 193.7109375 41.61523438 193.7109375 Z M103.61523438 193.7109375 C103.28523437 195.0309375 102.95523438 196.3509375 102.61523438 197.7109375 C120.43523437 197.7109375 138.25523437 197.7109375 156.61523438 197.7109375 C156.12023437 195.7309375 156.12023437 195.7309375 155.61523438 193.7109375 C138.45523438 193.7109375 121.29523438 193.7109375 103.61523438 193.7109375 Z " fill="#010101" transform="translate(57.384765625,22.2890625)"/>
<path d="M0 0 C1.98 0 3.96 0 6 0 C7.48520725 2.97041449 7.1705822 5.69764447 7.1875 9 C7.20167969 10.258125 7.21585938 11.51625 7.23046875 12.8125 C7 16 7 16 5 18 C1.875 17.625 1.875 17.625 -1 17 C-1.9702889 14.08913331 -2.16467847 12.09776315 -2.1875 9.0625 C-2.20167969 8.20785156 -2.21585937 7.35320312 -2.23046875 6.47265625 C-1.98703556 3.86090697 -1.3178268 2.24499348 0 0 Z " fill="#010101" transform="translate(74,76)"/>
<path d="M0 0 C2.375 0.8125 2.375 0.8125 3.375 2.8125 C3.52279962 4.7878988 3.59618966 6.76928924 3.625 8.75 C3.66367188 10.34134766 3.66367188 10.34134766 3.703125 11.96484375 C3.375 14.8125 3.375 14.8125 2.0234375 16.703125 C0.375 17.8125 0.375 17.8125 -2.25 17.625 C-4.625 16.8125 -4.625 16.8125 -5.625 14.8125 C-5.77279962 12.8371012 -5.84618966 10.85571076 -5.875 8.875 C-5.90078125 7.81410156 -5.9265625 6.75320312 -5.953125 5.66015625 C-5.625 2.8125 -5.625 2.8125 -4.2734375 0.921875 C-2.625 -0.1875 -2.625 -0.1875 0 0 Z " fill="#010101" transform="translate(173.625,113.1875)"/>
<path d="M0 0 C1.11445498 2.22890995 1.16480286 3.53055106 1.1875 6 C1.20167969 6.70125 1.21585938 7.4025 1.23046875 8.125 C1 10 1 10 -1 12 C-6.56818182 11.43181818 -6.56818182 11.43181818 -8 10 C-8.23880597 2.47761194 -8.23880597 2.47761194 -7 0 C-3.88407501 -1.03864166 -2.9737344 -1.09036928 0 0 Z " fill="#020202" transform="translate(59,72)"/>
<path d="M0 0 C2.3125 2 2.3125 2 2.8125 5.5 C2.3125 9 2.3125 9 1.125 11 C-0.6875 12 -0.6875 12 -3.3125 11.75 C-5.6875 11 -5.6875 11 -6.6875 10 C-6.92630597 2.47761194 -6.92630597 2.47761194 -5.6875 0 C-2.6875 -1 -2.6875 -1 0 0 Z " fill="#010101" transform="translate(194.6875,110)"/>
<path d="M0 0 C2.6875 0.875 2.6875 0.875 5 2 C6.35384615 8.4 6.35384615 8.4 4.5625 11.4375 C4.046875 11.953125 3.53125 12.46875 3 13 C-1.875 12.125 -1.875 12.125 -3 11 C-3.203125 9.00390625 -3.203125 9.00390625 -3.25 6.5625 C-3.27578125 5.75941406 -3.3015625 4.95632812 -3.328125 4.12890625 C-3.21984375 3.42636719 -3.1115625 2.72382812 -3 2 C-2.01 1.34 -1.02 0.68 0 0 Z " fill="#010101" transform="translate(89,71)"/>
<path d="M0 0 C2.5 0.25 2.5 0.25 4.5 2.25 C4.80078125 4.125 4.80078125 4.125 4.8125 6.25 C4.82925781 6.95125 4.84601563 7.6525 4.86328125 8.375 C4.68345703 9.303125 4.68345703 9.303125 4.5 10.25 C1.5 12.25 1.5 12.25 -1.125 12 C-1.90875 11.7525 -2.6925 11.505 -3.5 11.25 C-5.00662097 8.23675805 -4.67770373 5.56713623 -4.5 2.25 C-2.5 0.25 -2.5 0.25 0 0 Z " fill="#010101" transform="translate(152.5,109.75)"/>
<path d="" fill="#FFFFFF" transform="translate(0,0)"/>
<path d="" fill="#FFFFFF" transform="translate(0,0)"/>
<path d="" fill="#FFFFFF" transform="translate(0,0)"/>
<path d="" fill="#FFFFFF" transform="translate(0,0)"/>
<path d="" fill="#FFFFFF" transform="translate(0,0)"/>
<path d="" fill="#FFFFFF" transform="translate(0,0)"/>
<path d="" fill="#FFFFFF" transform="translate(0,0)"/>
<path d="" fill="#FFFFFF" transform="translate(0,0)"/>
<path d="" fill="#FFFFFF" transform="translate(0,0)"/>
<path d="" fill="#FFFFFF" transform="translate(0,0)"/>
<path d="" fill="#FFFFFF" transform="translate(0,0)"/>
<path d="" fill="#FFFFFF" transform="translate(0,0)"/>
<path d="" fill="#FFFFFF" transform="translate(0,0)"/>
<path d="" fill="#FFFFFF" transform="translate(0,0)"/>
<path d="" fill="#FFFFFF" transform="translate(0,0)"/>
<path d="" fill="#FFFFFF" transform="translate(0,0)"/>
<path d="" fill="#FFFFFF" transform="translate(0,0)"/>
<path d="" fill="#FFFFFF" transform="translate(0,0)"/>
<path d="" fill="#FFFFFF" transform="translate(0,0)"/>
<path d="" fill="#FFFFFF" transform="translate(0,0)"/>
<path d="" fill="#FFFFFF" transform="translate(0,0)"/>
<path d="" fill="#FFFFFF" transform="translate(0,0)"/>
<path d="" fill="#FFFFFF" transform="translate(0,0)"/>
<path d="" fill="#FFFFFF" transform="translate(0,0)"/>
<path d="" fill="#FFFFFF" transform="translate(0,0)"/>
<path d="" fill="#FFFFFF" transform="translate(0,0)"/>
<path d="" fill="#FFFFFF" transform="translate(0,0)"/>
<path d="" fill="#FFFFFF" transform="translate(0,0)"/>
<path d="" fill="#FFFFFF" transform="translate(0,0)"/>
<path d="" fill="#FFFFFF" transform="translate(0,0)"/>
<path d="" fill="#FFFFFF" transform="translate(0,0)"/>
<path d="" fill="#FFFFFF" transform="translate(0,0)"/>
<path d="" fill="#FFFFFF" transform="translate(0,0)"/>
<path d="" fill="#FFFFFF" transform="translate(0,0)"/>
<path d="" fill="#FFFFFF" transform="translate(0,0)"/>
<path d="" fill="#FFFFFF" transform="translate(0,0)"/>
<path d="" fill="#FFFFFF" transform="translate(0,0)"/>
<path d="" fill="#FFFFFF" transform="translate(0,0)"/>
<path d="" fill="#FFFFFF" transform="translate(0,0)"/>
<path d="" fill="#FFFFFF" transform="translate(0,0)"/>
<path d="" fill="#FFFFFF" transform="translate(0,0)"/>
<path d="" fill="#FFFFFF" transform="translate(0,0)"/>
<path d="" fill="#FFFFFF" transform="translate(0,0)"/>
<path d="" fill="#FFFFFF" transform="translate(0,0)"/>
</svg>
