<?xml version="1.0" encoding="UTF-8"?>
<svg version="1.1" xmlns="http://www.w3.org/2000/svg" width="250" height="250">
<path d="M0 0 C1.31742188 0.00644531 2.63484375 0.01289063 3.9921875 0.01953125 C6.75126188 0.09055971 9.42344114 0.33515067 12.15795898 0.70068359 C17.69348525 1.33127516 23.16734405 1.24032932 28.73046875 1.14453125 C30.95246522 1.12216094 33.17447103 1.10070361 35.39648438 1.08007812 C38.86606386 1.0428979 42.33516089 0.999615 45.80444336 0.94067383 C49.17568994 0.88618759 52.54639209 0.85710487 55.91796875 0.83203125 C56.95245651 0.80824905 57.98694427 0.78446686 59.05278015 0.75996399 C65.10393566 0.73797872 68.50359825 1.179431 73.125 5.1875 C77.04165459 9.10415459 76.39285014 14.90793417 76.5 20.1875 C76.55607422 21.23550781 76.55607422 21.23550781 76.61328125 22.3046875 C76.67692317 26.05248922 76.30965509 27.93944935 74.05493164 30.96826172 C71.125 33.1875 71.125 33.1875 67.71118164 33.24267578 C66.37774546 33.02009237 65.04819937 32.77338897 63.72265625 32.5078125 C56.79347937 31.40980894 50.07428379 30.97397294 43.05859375 30.9921875 C42.11867584 30.99414124 41.17875793 30.99609497 40.21035767 30.99810791 C37.32763063 31.01180462 34.44514285 31.0368507 31.5625 31.0625 C29.56836393 31.07256238 27.57422288 31.0816824 25.58007812 31.08984375 C20.76159238 31.1115704 15.94335359 31.14591559 11.125 31.1875 C11.17503174 32.41400269 11.17503174 32.41400269 11.22607422 33.6652832 C11.2520166 34.74124756 11.27795898 35.81721191 11.3046875 36.92578125 C11.35471924 38.52353394 11.35471924 38.52353394 11.40576172 40.15356445 C11.02794231 44.23631386 9.47128295 46.16256692 6.6328125 48.98046875 C3.49347423 51.49356597 1.05577874 51.27295171 -2.875 51.1875 C-2.545 51.8475 -2.215 52.5075 -1.875 53.1875 C-1.78069729 54.9447104 -1.74317285 56.70512673 -1.734375 58.46484375 C-1.71503906 59.53669922 -1.69570313 60.60855469 -1.67578125 61.71289062 C-1.64245289 63.95230015 -1.62373953 66.19198467 -1.62109375 68.43164062 C-1.44712356 76.12753224 -0.38885707 82.77299835 4.125 89.1875 C8.89498951 93.24735242 14.50559816 93.82173301 20.5625 93.9375 C21.33456787 93.96424805 22.10663574 93.99099609 22.90209961 94.01855469 C24.50835501 94.06882668 26.11493992 94.10946399 27.72167969 94.140625 C30.06823079 94.18639276 32.41221386 94.26379777 34.7578125 94.34375 C43.73640751 94.5794369 51.53527827 94.57990302 59 89.0625 C65.4023488 80.40049868 64.6049023 70.06963213 64.6875 59.8125 C64.71133666 57.47843335 64.73943053 55.14473311 64.77928162 52.81088257 C64.80353552 51.36751135 64.81847789 49.92394543 64.82289124 48.4803772 C64.879954 44.83123743 65.04260431 43.31109354 67.125 40.1875 C70.75 40 70.75 40 74.125 40.1875 C76.42817427 43.84124469 76.38297672 46.96810749 76.390625 51.2265625 C76.39253845 51.90745941 76.3944519 52.58835632 76.39642334 53.28988647 C76.39778188 54.73053354 76.39410855 56.17119299 76.38574219 57.61181641 C76.37513682 59.7844707 76.38559633 61.95627926 76.3984375 64.12890625 C76.4101181 75.27260268 76.41204225 87.62879543 68.2265625 96.16796875 C63.6867312 100.2605676 60.41605354 103.1875 54.125 103.1875 C54.125 106.4875 54.125 109.7875 54.125 113.1875 C56.47625 113.06375 56.47625 113.06375 58.875 112.9375 C68.91174965 112.96333462 77.80552261 116.30971521 85.125 123.1875 C95.125 133.26814516 95.125 133.26814516 95.125 140.1875 C99.10415159 140.21636984 103.08327653 140.23425406 107.0625 140.25 C108.19880859 140.25837891 109.33511719 140.26675781 110.50585938 140.27539062 C111.58544922 140.27861328 112.66503906 140.28183594 113.77734375 140.28515625 C114.77757568 140.29039307 115.77780762 140.29562988 116.80834961 140.30102539 C119.08707228 140.44931095 119.08707228 140.44931095 120.125 139.1875 C118.990625 139.14625 117.85625 139.105 116.6875 139.0625 C110.05683482 138.2277886 104.63673668 134.15049863 100.25 129.25 C95.98186146 123.09885917 94.60652485 117.50999858 94.125 110.1875 C93.22007812 110.16623047 93.22007812 110.16623047 92.296875 110.14453125 C85.75455854 109.75410269 85.75455854 109.75410269 82.625 106.9375 C79.24479 100.74044832 79.4773726 94.05556419 81 87.3125 C82.125 84.1875 82.125 84.1875 84.125 82.1875 C84.44697138 79.8301521 84.44697138 79.8301521 84.43359375 77.09375 C84.45873047 76.0625 84.48386719 75.03125 84.50976562 73.96875 C84.54441881 71.81255201 84.57576914 69.65629793 84.60351562 67.5 C84.86564628 57.16821618 86.467109 47.67855242 94.125 40.1875 C102.83541245 33.74081056 112.46640017 32.87667822 123.00390625 32.88671875 C124.01541245 32.88243362 125.02691864 32.8781485 126.06907654 32.87373352 C128.19439957 32.86802329 130.31974213 32.86746537 132.44506836 32.87182617 C135.6818179 32.87499444 138.91765943 32.85145619 142.15429688 32.82617188 C144.22916552 32.82389925 146.30403661 32.82319522 148.37890625 32.82421875 C149.3374501 32.815009 150.29599396 32.80579926 151.28358459 32.79631042 C157.53571482 32.83904309 163.80730533 33.24051556 168.71974182 37.60404968 C171.04524339 40.22443379 172.125 41.62241786 172.125 45.1875 C172.970625 45.3525 173.81625 45.5175 174.6875 45.6875 C179.41587512 47.75079096 182.14215186 51.03780769 185.125 55.1875 C186.11831751 58.16745252 186.27661929 60.2557994 186.3359375 63.37109375 C186.36429688 64.38107422 186.39265625 65.39105469 186.421875 66.43164062 C186.47385849 68.55646594 186.51815949 70.68149343 186.5546875 72.80664062 C186.60109375 74.32354492 186.60109375 74.32354492 186.6484375 75.87109375 C186.66825684 76.79462646 186.68807617 77.71815918 186.70849609 78.66967773 C187.19453599 81.60785445 188.2446136 82.92642188 190.125 85.1875 C191.89311282 91.53009077 192.12170317 98.60513271 189.75 104.75 C188.125 107.1875 188.125 107.1875 186.125 109.1875 C183.7421875 109.6015625 183.7421875 109.6015625 181 109.8125 C179.63488281 109.92464844 179.63488281 109.92464844 178.2421875 110.0390625 C177.54351562 110.08804688 176.84484375 110.13703125 176.125 110.1875 C176.01285156 111.43853516 176.01285156 111.43853516 175.8984375 112.71484375 C174.85672405 121.63068532 173.00657894 128.1355275 165.94140625 134 C161.88408634 136.84628176 157.96419225 138.94668147 153.125 140.1875 C153.021875 141.26 152.91875 142.3325 152.8125 143.4375 C152.12600761 147.18200394 151.76325296 148.56981057 149.125 151.1875 C146.57820129 151.6728363 146.57820129 151.6728363 143.49536133 151.65405273 C142.34018509 151.6576329 141.18500885 151.66121307 139.99482727 151.66490173 C138.74485458 151.6504451 137.4948819 151.63598846 136.20703125 151.62109375 C134.24129112 151.62824229 132.27555061 151.63541945 130.30981731 151.64424992 C126.15638222 151.65681075 122.00298474 151.63610995 117.84960938 151.61376953 C114.43937916 151.59574294 111.02980428 151.58690115 107.61955261 151.60401917 C105.06300441 151.61517616 102.50625211 151.60513226 99.9499054 151.57115173 C92.89809809 151.61169627 87.39780544 152.13222377 82.125 157.1875 C80.05121189 161.33507623 79.76697249 165.62356112 79.125 170.1875 C80.18243408 170.16393433 80.18243408 170.16393433 81.26123047 170.13989258 C84.50740279 170.07688334 87.7534458 170.03830204 91 170 C92.10859375 169.97486328 93.2171875 169.94972656 94.359375 169.92382812 C102.20312428 169.85461857 109.21734091 170.61749282 116.24951172 174.30004883 C118.91771006 175.56259777 120.34569324 175.06874361 123.125 174.1875 C124.80239862 173.20560813 126.46967377 172.20616229 128.125 171.1875 C132.32237806 169.89937891 136.5188142 170.02546126 140.87109375 170.01953125 C141.71922134 170.01620285 142.56734894 170.01287445 143.44117737 170.00944519 C145.23234516 170.00438984 147.02352234 170.00203643 148.81469727 170.00219727 C151.54914917 170.00001068 154.28319755 169.98184007 157.01757812 169.96289062 C158.76041529 169.9599564 160.50325437 169.9579718 162.24609375 169.95703125 C163.0608165 169.94984573 163.87553925 169.94266022 164.71495056 169.93525696 C168.91335182 169.95208637 172.3825471 170.04749698 176.125 172.1875 C179.28591967 177.52836427 179.49907183 182.07766005 179.125 188.1875 C179.90875 188.47625 180.6925 188.765 181.5 189.0625 C184.125 190.1875 184.125 190.1875 186.125 192.1875 C186.39491906 194.87589385 186.21237357 197.47891936 186.125 200.1875 C188.105 200.1875 190.085 200.1875 192.125 200.1875 C191.96435059 199.67413086 191.80370117 199.16076172 191.63818359 198.63183594 C190.96444322 195.42275478 190.95945416 192.35715179 190.9140625 189.078125 C190.88598121 187.66925947 190.85731666 186.26040546 190.828125 184.8515625 C190.78702444 182.64876796 190.75010437 180.44618563 190.72363281 178.24316406 C191.04226111 165.2607604 191.04226111 165.2607604 185.1875 154.25 C180.08570906 151.62180467 174.49777224 151.87609325 168.88085938 151.66992188 C165.15271262 151.4864569 163.29894768 151.30346512 160.125 149.1875 C158.8125 144.8125 158.8125 144.8125 160.125 142.1875 C164.33596652 140.78384449 168.33775873 140.92302875 172.75 140.875 C173.61496094 140.84599609 174.47992188 140.81699219 175.37109375 140.78710938 C183.02714499 140.71250018 188.9356933 142.63605464 194.9375 147.4375 C200.79877071 154.80595461 202.24892886 161.77433152 202.2578125 171.125 C202.25910156 172.43210938 202.26039063 173.73921875 202.26171875 175.0859375 C202.25962402 175.75979492 202.2575293 176.43365234 202.25537109 177.12792969 C202.25001508 179.18171574 202.25533445 181.23528315 202.26171875 183.2890625 C202.25978516 185.24972656 202.25978516 185.24972656 202.2578125 187.25 C202.25668457 188.43722656 202.25555664 189.62445313 202.25439453 190.84765625 C202.13046467 194.0464496 201.72671656 197.04686223 201.125 200.1875 C201.785 199.8575 202.445 199.5275 203.125 199.1875 C209.59558824 198.83455882 209.59558824 198.83455882 213.125 201.1875 C213.53343923 203.89953652 213.25836867 206.4312142 213.125 209.1875 C210.37605645 209.961012 207.93135849 210.31432459 205.07877731 210.32172108 C204.27804912 210.32617892 203.47732093 210.33063676 202.65232825 210.33522969 C201.77840942 210.33504533 200.90449058 210.33486097 200.00408936 210.33467102 C199.07118269 210.33834771 198.13827603 210.3420244 197.17709947 210.3458125 C194.04351649 210.35684686 190.90996668 210.36069275 187.77636719 210.36450195 C185.53262731 210.37076672 183.28888846 210.37741354 181.04515076 210.38441467 C174.94380899 210.40182145 168.84247506 210.41237531 162.74111462 210.4206202 C158.92984824 210.42577048 155.1185843 210.43184616 151.30731964 210.43813133 C140.75064763 210.45499874 130.19397777 210.46963407 119.63729477 210.47688007 C116.89930978 210.47878988 114.1613248 210.48071023 111.42333984 210.48266602 C110.4026044 210.48339163 110.4026044 210.48339163 109.36124805 210.4841319 C98.33819403 210.49243193 87.31524853 210.51776996 76.2922419 210.55024669 C64.96934606 210.58333447 53.64652476 210.60099766 42.32357335 210.60452431 C35.96845834 210.6068762 29.61351497 210.61585513 23.25844574 210.64098549 C17.27975285 210.66424583 11.30134487 210.66850746 5.32261848 210.65822411 C3.12966274 210.65772817 0.93669306 210.66406566 -1.25621986 210.67778015 C-4.25320636 210.69547303 -7.24916748 210.68840528 -10.24615479 210.67524719 C-11.11115073 210.68621644 -11.97614668 210.69718568 -12.86735463 210.70848733 C-19.71937502 210.63600285 -24.96829078 208.78024411 -30.1171875 204.1875 C-30.65601563 203.5275 -31.19484375 202.8675 -31.75 202.1875 C-32.30429687 201.5275 -32.85859375 200.8675 -33.4296875 200.1875 C-36.50288205 195.93486322 -37.130866 192.96712274 -37.16552734 187.67822266 C-37.17224457 187.03378708 -37.17896179 186.3893515 -37.18588257 185.72538757 C-37.20483818 183.60070019 -37.20878549 181.47632912 -37.2109375 179.3515625 C-37.21736729 177.86949536 -37.22409578 176.38742948 -37.23110962 174.90536499 C-37.24307637 171.80016132 -37.24679109 168.69506885 -37.24560547 165.58984375 C-37.24540234 161.61966227 -37.27269958 157.65019713 -37.30714989 153.68018532 C-37.32943774 150.61915847 -37.33344244 147.55830349 -37.33238602 144.49720383 C-37.33473933 143.03402616 -37.34354776 141.57084356 -37.35905075 140.10774612 C-37.37875018 138.05651609 -37.37285946 136.00682365 -37.36083984 133.95556641 C-37.36368988 132.79070709 -37.36653992 131.62584778 -37.36947632 130.4256897 C-36.57141144 125.19938183 -33.82784821 122.11869257 -30.125 118.5 C-22.34536444 112.96449009 -14.08959569 112.01050684 -4.6875 112.0625 C-3.97658203 112.05863281 -3.26566406 112.05476563 -2.53320312 112.05078125 C0.62061884 112.05671506 3.11169395 112.18306465 6.125 113.1875 C5.795 112.5275 5.465 111.8675 5.125 111.1875 C5.13660156 110.55457031 5.14820313 109.92164063 5.16015625 109.26953125 C5.19196264 106.62960057 5.00427175 104.68909004 4.125 102.1875 C1.77870828 100.11443633 -0.68925205 98.58556634 -3.35546875 96.94921875 C-7.91283609 93.76259445 -10.1484101 89.36726969 -11.875 84.1875 C-12.09679785 82.29537263 -12.28114015 80.39865528 -12.4375 78.5 C-12.56318359 77.00919922 -12.56318359 77.00919922 -12.69140625 75.48828125 C-12.75199219 74.72902344 -12.81257813 73.96976562 -12.875 73.1875 C-14.7003125 73.2803125 -14.7003125 73.2803125 -16.5625 73.375 C-20.52301968 73.34001308 -22.85363967 72.94988659 -25.875 70.1875 C-28.88171183 64.27775605 -29.72502669 58.78065574 -28.875 52.1875 C-28.38 51.07375 -27.885 49.96 -27.375 48.8125 C-24.76640656 42.50839919 -25.46683993 35.67764756 -26.375 29 C-27.39908082 21.19138375 -27.81452673 14.75969943 -22.875 8.1875 C-16.24954932 1.70576842 -9.18405063 -0.16941453 0 0 Z M-14.875 14.1875 C-16.07159969 17.77729907 -16.06593231 21.07470962 -16.0625 24.8125 C-16.06314453 25.52728516 -16.06378906 26.24207031 -16.06445312 26.97851562 C-16.0114023 32.29806684 -15.34174814 37.0538815 -13.875 42.1875 C-11.77195523 42.2955023 -9.66733091 42.37308987 -7.5625 42.4375 C-6.39074219 42.48390625 -5.21898437 42.5303125 -4.01171875 42.578125 C-0.87605216 42.47449523 -0.87605216 42.47449523 1 40.625 C2.50930512 37.35483892 2.64635059 34.52632733 2.8125 30.9375 C2.87824219 29.67421875 2.94398437 28.4109375 3.01171875 27.109375 C3.04910156 26.14515625 3.08648437 25.1809375 3.125 24.1875 C24.09682865 21.65641723 45.04002565 21.98513406 66.125 22.1875 C66.125 18.8875 66.125 15.5875 66.125 12.1875 C60.9784557 9.61422785 53.44128291 11.19864187 47.81054688 11.64477539 C36.11726441 12.51719992 24.56874577 11.78576694 12.90014648 10.94970703 C8.97657511 10.66859108 5.05196068 10.41732343 1.125 10.1875 C-0.03902344 10.11901855 -1.20304687 10.05053711 -2.40234375 9.97998047 C-3.99755859 9.92608154 -3.99755859 9.92608154 -5.625 9.87109375 C-6.54796875 9.8342749 -7.4709375 9.79745605 -8.421875 9.75952148 C-11.69377442 10.3303455 -12.82893029 11.63020088 -14.875 14.1875 Z M98.125 50.1875 C94.37356378 57.55639258 93.98411495 63.91428087 94.0625 72 C94.06701172 72.88365234 94.07152344 73.76730469 94.07617188 74.67773438 C94.08790134 76.84768559 94.10583505 79.01760172 94.125 81.1875 C94.785 81.1875 95.445 81.1875 96.125 81.1875 C96.34414062 80.64480469 96.56328125 80.10210937 96.7890625 79.54296875 C98.49422526 75.69595521 99.50963694 73.58492198 103.125 71.25 C107.27651213 69.77967279 110.72060771 69.06088414 115.13378906 69.02636719 C116.6261911 69.01195587 116.6261911 69.01195587 118.14874268 68.99725342 C119.75347443 68.9908786 119.75347443 68.9908786 121.390625 68.984375 C122.49799011 68.97867493 123.60535522 68.97297485 124.74627686 68.96710205 C127.08979336 68.95765854 129.43332311 68.95112065 131.77685547 68.94726562 C135.34756893 68.93757445 138.91770318 68.90655005 142.48828125 68.875 C144.76822576 68.86846813 147.04817437 68.86321838 149.328125 68.859375 C150.92071136 68.8408548 150.92071136 68.8408548 152.54547119 68.82196045 C159.71229615 68.84330777 165.68408604 69.47098898 171.5 74.0625 C173.24765762 76.34789843 174.21794427 78.46633282 175.125 81.1875 C175.455 81.1875 175.785 81.1875 176.125 81.1875 C177.47618692 73.58707358 178.62910136 65.3044507 175.125 58.1875 C172.66232285 55.85794053 170.8287495 54.39347546 167.5625 53.4375 C164.18386028 51.70486425 163.46833087 49.3741467 162.01953125 45.96484375 C161.25407156 44.00291461 161.25407156 44.00291461 159.125 43.1875 C157.62558365 43.0826782 156.12167661 43.03881969 154.61865234 43.02636719 C153.68362885 43.01675964 152.74860535 43.0071521 151.7852478 42.99725342 C150.7707254 42.99300354 149.756203 42.98875366 148.7109375 42.984375 C147.14552719 42.97582489 147.14552719 42.97582489 145.54849243 42.96710205 C143.3342592 42.95764102 141.12001182 42.95111371 138.90576172 42.94726562 C135.53457608 42.93759914 132.16401019 42.90660197 128.79296875 42.875 C126.64062862 42.86846604 124.48828412 42.86321711 122.3359375 42.859375 C121.33356049 42.8470282 120.33118347 42.8346814 119.2984314 42.82196045 C111.21352486 42.84739569 104.01377551 44.13047376 98.125 50.1875 Z M-17.875 51.1875 C-17.875 55.4775 -17.875 59.7675 -17.875 64.1875 C-15.895 64.1875 -13.915 64.1875 -11.875 64.1875 C-11.875 59.8975 -11.875 55.6075 -11.875 51.1875 C-13.855 51.1875 -15.835 51.1875 -17.875 51.1875 Z M105.125 80.1875 C103.3101987 85.63190391 103.854597 91.49037201 103.8125 97.1875 C103.78349609 98.46496094 103.75449219 99.74242188 103.72460938 101.05859375 C103.66570881 109.91180114 104.15132912 118.89163959 110.4375 125.6875 C115.8014626 128.68133959 121.22032308 130.62095306 127.125 132.1875 C127.455 135.1575 127.785 138.1275 128.125 141.1875 C129.70726965 141.38377391 131.29089271 141.56915538 132.875 141.75 C133.75671875 141.85441406 134.6384375 141.95882812 135.546875 142.06640625 C138.39410983 142.32407071 138.39410983 142.32407071 142.125 141.1875 C142.125 137.8875 142.125 134.5875 142.125 131.1875 C142.88683594 131.11273438 143.64867187 131.03796875 144.43359375 130.9609375 C151.91706449 130.00798617 157.62150195 128.51638014 163.125 123.1875 C167.67169718 115.96773484 167.69217681 108.12838685 167.53662109 99.83544922 C167.49967863 97.79474736 167.49560582 95.75584821 167.49609375 93.71484375 C167.82205634 86.0684837 167.82205634 86.0684837 165.125 79.1875 C162.0403574 77.27822666 159.66625955 76.93163425 156.06860352 76.9128418 C155.06398575 76.90330978 154.05936798 76.89377777 153.02430725 76.88395691 C151.40545876 76.88532402 151.40545876 76.88532402 149.75390625 76.88671875 C148.08218605 76.88029106 148.08218605 76.88029106 146.37669373 76.87373352 C144.02058593 76.86799247 141.66446041 76.86748829 139.30834961 76.87182617 C135.70460759 76.874985 132.10168733 76.85152709 128.49804688 76.82617188 C126.20833437 76.82389876 123.91861966 76.82319544 121.62890625 76.82421875 C120.0130941 76.81040413 120.0130941 76.81040413 118.36463928 76.79631042 C111.19203243 76.71023356 111.19203243 76.71023356 105.125 80.1875 Z M90.125 90.1875 C90.125 93.8175 90.125 97.4475 90.125 101.1875 C91.775 101.1875 93.425 101.1875 95.125 101.1875 C95.125 97.5575 95.125 93.9275 95.125 90.1875 C93.475 90.1875 91.825 90.1875 90.125 90.1875 Z M175.125 90.1875 C175.125 93.8175 175.125 97.4475 175.125 101.1875 C177.105 101.1875 179.085 101.1875 181.125 101.1875 C181.125 97.5575 181.125 93.9275 181.125 90.1875 C179.145 90.1875 177.165 90.1875 175.125 90.1875 Z M14.125 104.1875 C14.125 107.1575 14.125 110.1275 14.125 113.1875 C24.355 113.1875 34.585 113.1875 45.125 113.1875 C45.125 110.2175 45.125 107.2475 45.125 104.1875 C34.895 104.1875 24.665 104.1875 14.125 104.1875 Z M-25.875 128.1875 C-28.47946171 131.74390684 -29.25190131 134.21873948 -29.26318359 138.60107422 C-29.27264008 139.65922333 -29.28209656 140.71737244 -29.2918396 141.80758667 C-29.28576691 142.94100494 -29.27969421 144.07442322 -29.2734375 145.2421875 C-29.27630768 146.41709747 -29.27917786 147.59200745 -29.28213501 148.80252075 C-29.28417465 151.28550702 -29.27865184 153.7685094 -29.26611328 156.25146484 C-29.2500879 160.04170935 -29.2659516 163.83088281 -29.28515625 167.62109375 C-29.28317324 170.03646068 -29.27932837 172.45182694 -29.2734375 174.8671875 C-29.27951019 175.99655731 -29.28558289 177.12592712 -29.2918396 178.28952026 C-29.22764879 185.51505358 -28.63106154 190.67114562 -24.0625 196.5 C-19.65950758 199.89659415 -15.03382059 200.43659723 -9.6015625 200.3828125 C-8.44785156 200.37636719 -7.29414063 200.36992187 -6.10546875 200.36328125 C-4.91566406 200.34652344 -3.72585937 200.32976562 -2.5 200.3125 C-0.68048828 200.29896484 -0.68048828 200.29896484 1.17578125 200.28515625 C4.15893929 200.26166682 7.14199532 200.22579821 10.125 200.1875 C10.125 192.9275 10.125 185.6675 10.125 178.1875 C3.195 177.6925 3.195 177.6925 -3.875 177.1875 C-3.875 168.2775 -3.875 159.3675 -3.875 150.1875 C-1.565 150.5175 0.745 150.8475 3.125 151.1875 C3.62 160.0975 3.62 160.0975 4.125 169.1875 C7.033125 169.373125 7.033125 169.373125 10 169.5625 C15.875 169.9375 15.875 169.9375 18.125 172.1875 C18.75 174.3125 18.75 174.3125 19.125 176.1875 C24.94804721 176.7477932 30.77609267 177.26290575 36.625 177.4375 C37.3984375 177.46328125 38.171875 177.4890625 38.96875 177.515625 C41.68744155 177.10191107 43.06967717 175.96255154 45.125 174.1875 C43.76080527 171.05188822 42.27017424 169.27304699 39.6875 167.0625 C35.50101517 163.05917389 34.29938391 158.7462505 33.125 153.1875 C39.30679776 154.34003857 41.75799249 155.45323651 46.125 160.1875 C46.98480469 161.10789063 47.84460938 162.02828125 48.73046875 162.9765625 C49.58253906 163.91242188 50.43460937 164.84828125 51.3125 165.8125 C52.17230469 166.75351563 53.03210938 167.69453125 53.91796875 168.6640625 C56.125 171.1875 56.125 171.1875 58.125 174.1875 C63.87048449 173.42676297 63.87048449 173.42676297 69.125 171.1875 C70.17406 167.94309787 70.17406 167.94309787 70.5625 164.125 C71.75858935 156.64408593 73.75574844 150.39863669 80.0703125 145.7578125 C82 144.625 82 144.625 85.125 143.1875 C84.78709308 137.78098932 81.7113398 134.00571522 78.125 130.1875 C70.0052579 123.87566923 61.88477206 122.10399826 51.71777344 121.97875977 C51.00144241 121.96897598 50.28511139 121.9591922 49.54707336 121.94911194 C47.19285893 121.91936939 44.83870034 121.8978327 42.484375 121.87890625 C41.67491676 121.87233442 40.86545853 121.8657626 40.03147125 121.85899162 C35.74707281 121.82649176 31.46269827 121.80201741 27.17822266 121.7824707 C23.64953185 121.76466833 20.12164176 121.72985268 16.59326172 121.67993164 C12.31332694 121.61947111 8.03413323 121.58896124 3.75379181 121.57929802 C2.1319743 121.57078813 0.51017424 121.55208134 -1.11139679 121.5225544 C-10.38146079 121.36283184 -18.71704169 121.40264058 -25.875 128.1875 Z M69.125 180.1875 C69.125 182.8275 69.125 185.4675 69.125 188.1875 C83.645 188.1875 98.165 188.1875 113.125 188.1875 C111.63538448 183.34625837 111.63538448 183.34625837 109.03637695 181.39331055 C105.1820066 179.79693862 101.64145959 179.81353757 97.54296875 179.89453125 C96.72878983 179.89877609 95.9146109 179.90302094 95.07575989 179.90739441 C92.48766332 179.92412247 89.90035929 179.96176288 87.3125 180 C85.55274566 180.01505447 83.79297905 180.02874154 82.03320312 180.04101562 C77.73016563 180.07400664 73.42771697 180.1257476 69.125 180.1875 Z M125.125 185.1875 C125.125 186.1775 125.125 187.1675 125.125 188.1875 C139.975 188.1875 154.825 188.1875 170.125 188.1875 C170.125 185.5475 170.125 182.9075 170.125 180.1875 C164.96552654 180.11309552 159.80636849 180.05877809 154.64648438 180.02270508 C152.89284827 180.00766005 151.13924953 179.98721896 149.38574219 179.96118164 C146.85862991 179.92460879 144.33201704 179.9077308 141.8046875 179.89453125 C141.02632538 179.87904739 140.24796326 179.86356354 139.4460144 179.84761047 C133.6454227 179.84583505 129.37242176 180.94007824 125.125 185.1875 Z M47.6953125 183.69140625 C42.10716392 185.86007583 36.53679915 185.51289484 30.625 185.375 C28.96210937 185.35469727 28.96210937 185.35469727 27.265625 185.33398438 C24.55187093 185.29889273 21.83836974 185.24509511 19.125 185.1875 C19.125 190.1375 19.125 195.0875 19.125 200.1875 C30.015 200.1875 40.905 200.1875 52.125 200.1875 C53.115 197.2175 54.105 194.2475 55.125 191.1875 C56.42644802 190.14634159 57.75297869 189.13372159 59.125 188.1875 C59.45925735 185.56124861 59.45925735 185.56124861 59.125 183.1875 C55.08594682 181.16797341 51.71840293 181.92729484 47.6953125 183.69140625 Z M62.125 196.1875 C61.795 197.5075 61.465 198.8275 61.125 200.1875 C78.615 200.1875 96.105 200.1875 114.125 200.1875 C114.125 198.8675 114.125 197.5475 114.125 196.1875 C96.965 196.1875 79.805 196.1875 62.125 196.1875 Z M124.125 196.1875 C123.795 197.5075 123.465 198.8275 123.125 200.1875 C140.615 200.1875 158.105 200.1875 176.125 200.1875 C176.125 198.8675 176.125 197.5475 176.125 196.1875 C158.965 196.1875 141.805 196.1875 124.125 196.1875 Z " fill="#FEFEFE" transform="translate(36.875,19.8125)"/>
<path d="M0 0 C2.64 0 5.28 0 8 0 C9.01702117 3.0510635 9.16582083 5.24199061 9.1875 8.4375 C9.20167969 9.38496094 9.21585938 10.33242187 9.23046875 11.30859375 C8.99614518 14.04501644 8.39701383 15.66428123 7 18 C4.69 18 2.38 18 0 18 C-2.04014021 12.35961237 -2.18727591 7.88840878 -1 2 C-0.67 1.34 -0.34 0.68 0 0 Z " fill="#FEFEFE" transform="translate(73,76)"/>
<path d="M0 0 C1.80116392 3.10001122 2.2961501 5.42482097 2.3125 9 C2.32925781 9.845625 2.34601563 10.69125 2.36328125 11.5625 C1.92298832 14.51672351 1.08763377 15.88323646 -1 18 C-4.1875 18.25 -4.1875 18.25 -7 18 C-9.36074661 13.42605344 -9.59177381 9.03477403 -9 4 C-7.00434759 -0.5456527 -4.68551638 -0.41649034 0 0 Z " fill="#FEFEFE" transform="translate(176,113)"/>
<path d="M0 0 C1.134375 0.020625 2.26875 0.04125 3.4375 0.0625 C5.66391709 4.38436847 5.4332658 7.35524351 4.4375 12.0625 C3.4375 13.0625 3.4375 13.0625 -0.125 13.125 C-1.259375 13.104375 -2.39375 13.08375 -3.5625 13.0625 C-5.56769881 10.23163109 -5.64466415 8.20572623 -5.25 4.875 C-4.38477351 0.07692585 -4.38477351 0.07692585 0 0 Z " fill="#FDFDFD" transform="translate(55.5625,70.9375)"/>
<path d="M0 0 C3.125 0.3125 3.125 0.3125 5.0625 1.8125 C6.67582878 5.60856772 5.91669479 8.28805147 5.125 12.3125 C4.125 13.3125 4.125 13.3125 0.6875 13.5 C-2.875 13.3125 -2.875 13.3125 -4.875 11.3125 C-4.88671875 8.96484375 -4.88671875 8.96484375 -4.5625 6.25 C-4.46324219 5.35152344 -4.36398438 4.45304687 -4.26171875 3.52734375 C-3.6827906 0.21166435 -3.4416107 0.37408812 0 0 Z " fill="#FEFEFE" transform="translate(191.875,108.6875)"/>
<path d="M0 0 C2.4375 0.75 2.4375 0.75 4.4375 2.75 C4.73828125 4.625 4.73828125 4.625 4.75 6.75 C4.76675781 7.45125 4.78351563 8.1525 4.80078125 8.875 C4.62095703 9.803125 4.62095703 9.803125 4.4375 10.75 C1.0022952 13.04013653 -0.547831 12.92842973 -4.5625 12.75 C-6.46618048 9.95046988 -6.55434124 8.59226401 -6.375 5.125 C-5.39729255 1.06375368 -4.3458612 -0.42398646 0 0 Z " fill="#FEFEFE" transform="translate(153.5625,109.25)"/>
<path d="M0 0 C6.875 0.875 6.875 0.875 8 2 C8.16796875 3.99609375 8.16796875 3.99609375 8.1875 6.4375 C8.20167969 7.24058594 8.21585938 8.04367188 8.23046875 8.87109375 C8 11 8 11 6 13 C3 13.25 3 13.25 0 13 C-2.60704898 10.39295102 -2.23905333 8.52661759 -2.265625 4.97265625 C-2 3 -2 3 0 0 Z " fill="#FEFEFE" transform="translate(87,71)"/>
</svg>
