<?xml version="1.0" encoding="UTF-8"?>
<svg version="1.1" xmlns="http://www.w3.org/2000/svg" width="800" height="800">
<path d="M0 0 C0.77689178 -0.00701431 1.55378357 -0.01402863 2.35421753 -0.02125549 C4.84427775 -0.03864232 7.33410008 -0.04510673 9.82421875 -0.046875 C10.67553375 -0.04754974 11.52684875 -0.04822449 12.40396118 -0.04891968 C25.00126585 -0.03304602 37.18855425 0.35696826 49.51171875 3.203125 C50.28354492 3.37473145 51.05537109 3.54633789 51.85058594 3.72314453 C70.01631678 7.8530618 87.12246148 14.39007448 103.51171875 23.203125 C104.39802979 23.668396 104.39802979 23.668396 105.30224609 24.14306641 C120.10078036 31.94023227 133.05218761 42.15805259 145.02978516 53.77246094 C146.43906066 55.13298061 147.87133143 56.46956143 149.3046875 57.8046875 C180.81543875 87.90586691 202.35630658 134.62295534 203.6887207 178.31054688 C203.71485417 179.76423152 203.73503296 181.2180325 203.75 182.671875 C203.75974854 183.46153152 203.76949707 184.25118805 203.77954102 185.06477356 C203.95343385 202.80825508 203.6355326 219.84419003 199.51171875 237.203125 C199.33511719 237.98768066 199.15851562 238.77223633 198.9765625 239.58056641 C190.34262597 277.21013978 168.86044143 309.52507944 141.51171875 336.203125 C142.75645069 340.22909511 144.23399704 343.78941834 146.296875 347.4609375 C146.82732422 348.41613281 147.35777344 349.37132812 147.90429688 350.35546875 C148.45537109 351.33644531 149.00644531 352.31742187 149.57421875 353.328125 C150.67351545 355.28668613 151.76874469 357.24753727 152.859375 359.2109375 C153.34414307 360.07348145 153.82891113 360.93602539 154.32836914 361.82470703 C155.39893281 363.9764362 156.04699092 365.85606276 156.51171875 368.203125 C157.70539062 367.8628125 158.8990625 367.5225 160.12890625 367.171875 C193.77288349 357.7153151 227.54568789 350.63407063 262.32421875 346.953125 C263.11042603 346.86985962 263.8966333 346.78659424 264.70666504 346.70080566 C288.01560167 344.26726018 310.98576481 344.203125 334.51171875 344.203125 C334.51171875 388.093125 334.51171875 431.983125 334.51171875 477.203125 C337.81171875 477.203125 341.11171875 477.203125 344.51171875 477.203125 C359.35193484 479.25875639 371.42083922 487.45292527 380.76171875 498.953125 C384.5052185 504.2661374 387.01807295 510.22876526 389.51171875 516.203125 C389.82109375 516.94175781 390.13046875 517.68039062 390.44921875 518.44140625 C395.31230979 531.48563481 396.06561866 545.74625672 395.94921875 559.515625 C395.9465097 560.27393616 395.94380066 561.03224731 395.94100952 561.8135376 C395.81291942 585.54355309 391.48380259 609.08619747 374.7734375 627.1015625 C363.66459133 637.4237719 349.46873778 642.28615279 334.51171875 642.203125 C334.51393936 643.51635239 334.51615997 644.82957977 334.51844788 646.18260193 C334.53867677 658.52913574 334.55368967 670.8756662 334.56353092 683.22221279 C334.56876039 689.57043076 334.57585919 695.9186354 334.5871582 702.2668457 C334.59798481 708.38761082 334.6039951 714.50836309 334.60659599 720.62913704 C334.60845065 722.97003443 334.61207204 725.31093109 334.61744881 727.65182304 C334.62465623 730.91820702 334.62570982 734.18453715 334.62524414 737.45092773 C334.62883942 738.42916 334.63243469 739.40739227 334.63613892 740.41526794 C334.63476425 741.30012878 334.63338959 742.18498962 334.63197327 743.09666443 C334.63289506 743.87004874 334.63381685 744.64343306 334.63476658 745.44025326 C334.51171875 747.203125 334.51171875 747.203125 333.51171875 748.203125 C331.07227865 748.38774692 328.65452408 748.51111196 326.2109375 748.59765625 C324.62139436 748.66370992 323.03187724 748.7303917 321.44238281 748.79760742 C320.59131958 748.83244232 319.74025635 748.86727722 318.86340332 748.90316772 C233.5589258 752.50393519 147.18660453 765.66534284 65.38671875 790.515625 C64.72510742 790.71636627 64.06349609 790.91710754 63.38183594 791.12393188 C61.48329532 791.70328178 59.58731526 792.29100165 57.69140625 792.87890625 C56.47912354 793.25466797 55.26684082 793.63042969 54.01782227 794.01757812 C50.5348101 795.13994293 50.5348101 795.13994293 47.36303711 796.57617188 C35.69673557 801.5428988 23.82528043 801.14534928 11.32421875 801.078125 C9.58120483 801.0771582 9.58120483 801.0771582 7.80297852 801.07617188 C-9.45187052 801.00951867 -23.56283485 799.39413275 -39.49072266 792.43017578 C-44.91166225 790.21111385 -50.53739611 788.70308321 -56.17578125 787.140625 C-57.34149658 786.81368652 -58.50721191 786.48674805 -59.70825195 786.14990234 C-63.29761527 785.15235118 -66.89154984 784.17375643 -70.48828125 783.203125 C-71.66261719 782.88520996 -72.83695312 782.56729492 -74.046875 782.23974609 C-149.12828378 762.15485783 -228.20789703 750.71362099 -305.90698242 748.49291992 C-312.39220947 748.29919678 -312.39220947 748.29919678 -313.48828125 747.203125 C-313.58363338 745.83704174 -313.61016795 744.46607045 -313.60853577 743.09666443 C-313.60991043 742.21180359 -313.6112851 741.32694275 -313.61270142 740.41526794 C-313.6073085 738.94791954 -313.6073085 738.94791954 -313.60180664 737.45092773 C-313.60195267 736.4266568 -313.60209869 735.40238586 -313.60224915 734.34707642 C-313.60154953 730.94360271 -313.59375488 727.54018296 -313.5859375 724.13671875 C-313.58407349 721.78402232 -313.58264951 719.4313255 -313.58164978 717.07862854 C-313.57782324 710.87255795 -313.5679918 704.6665106 -313.5569458 698.46044922 C-313.54673459 692.13314122 -313.54215279 685.80582948 -313.53710938 679.47851562 C-313.52636965 667.05337518 -313.50929161 654.62825202 -313.48828125 642.203125 C-314.36726074 642.14471436 -315.24624023 642.08630371 -316.15185547 642.02612305 C-317.89233154 641.90297729 -317.89233154 641.90297729 -319.66796875 641.77734375 C-320.81507324 641.69830811 -321.96217773 641.61927246 -323.14404297 641.5378418 C-336.71702484 640.17935456 -348.24975759 632.97839387 -357.48828125 623.203125 C-375.22922067 601.37710084 -377.44633397 569.14130776 -374.72705078 542.19091797 C-372.50599496 523.70028764 -366.58753511 502.62245126 -351.984375 490.046875 C-339.78094343 480.74240939 -328.82392864 477.203125 -313.48828125 477.203125 C-313.48828125 433.313125 -313.48828125 389.423125 -313.48828125 344.203125 C-268.79364576 344.203125 -268.79364576 344.203125 -248.48828125 346.203125 C-247.1945459 346.32671387 -245.90081055 346.45030273 -244.56787109 346.57763672 C-208.06322782 350.12561427 -170.34606124 356.583865 -135.48828125 368.203125 C-135.22241211 367.33059082 -134.95654297 366.45805664 -134.68261719 365.55908203 C-133.51624775 362.28170789 -132.11365693 359.51679225 -130.37890625 356.5078125 C-129.78980469 355.46238281 -129.20070313 354.41695313 -128.59375 353.33984375 C-127.34958376 351.15273047 -126.09686419 348.97046227 -124.8359375 346.79296875 C-124.25199219 345.75011719 -123.66804687 344.70726562 -123.06640625 343.6328125 C-122.5240332 342.68647949 -121.98166016 341.74014648 -121.42285156 340.76513672 C-120.22569665 338.28366516 -120.22569665 338.28366516 -121.15209961 336.04223633 C-123.3456014 333.02311537 -126.1019391 330.57253716 -128.80078125 328.015625 C-156.17639603 301.23405611 -173.89883598 264.75352256 -180.48828125 227.203125 C-180.66560791 226.22666016 -180.84293457 225.25019531 -181.02563477 224.24414062 C-182.70146506 214.01165659 -182.84591424 203.92516377 -182.80078125 193.578125 C-182.79754852 192.24735931 -182.79754852 192.24735931 -182.79425049 190.88970947 C-182.7444027 178.11686201 -182.47226313 165.68061978 -179.48828125 153.203125 C-179.19026611 151.91196777 -179.19026611 151.91196777 -178.88623047 150.59472656 C-167.27663601 101.46048786 -137.62669009 57.31558578 -94.73828125 30.140625 C-66.24109913 12.56913171 -33.87526267 0.20644977 0 0 Z M52.51171875 120.203125 C51.88007813 121.03972656 51.2484375 121.87632813 50.59765625 122.73828125 C43.90291573 131.49000813 36.68369269 139.55021998 29.09082031 147.52685547 C26.9346665 149.81568542 24.84657327 152.16187582 22.76171875 154.515625 C16.43293405 161.58413778 9.76488336 168.27636679 2.55078125 174.44140625 C0.28479645 176.39918239 -1.90971619 178.42541448 -4.11328125 180.453125 C-42.35957631 214.86316554 -90.56640987 242.73315218 -141.48828125 252.203125 C-138.7844015 272.38133205 -121.63895691 291.62387891 -108.48828125 306.203125 C-107.72515625 307.05003906 -106.96203125 307.89695312 -106.17578125 308.76953125 C-77.24038955 339.22012083 -35.58440976 355.93518773 5.99609375 357.38671875 C50.42492824 358.34827777 92.55438655 341.46448866 124.6796875 310.96484375 C145.35890363 290.79904264 161.04732605 265.19935566 168.51171875 237.203125 C167.44695312 236.47609375 166.3821875 235.7490625 165.28515625 235 C155.50809079 228.25426662 146.36101809 221.11974338 137.51171875 213.203125 C136.56167969 212.36394531 135.61164063 211.52476562 134.6328125 210.66015625 C130.98455986 207.41424444 127.4115722 204.14672387 124.01171875 200.640625 C121.85498861 197.97042495 121.85498861 197.97042495 119.51171875 198.203125 C119.24383545 197.60854492 118.97595215 197.01396484 118.69995117 196.40136719 C117.49961202 194.18072743 116.30468877 192.7787643 114.5 191.03125 C113.91065674 190.45358887 113.32131348 189.87592773 112.71411133 189.28076172 C112.09044678 188.6776416 111.46678223 188.07452148 110.82421875 187.453125 C106.47440381 183.17740786 102.21991951 178.90940771 98.27734375 174.25 C96.40748756 172.08229061 94.4703436 169.9838385 92.52172852 167.88696289 C87.95334623 162.96722586 83.59979329 157.96173618 79.453125 152.67578125 C77.44265664 150.1151646 75.39024043 147.59409695 73.32421875 145.078125 C70.58933958 141.7466317 67.86526535 138.40725584 65.15625 135.0546875 C64.57447998 134.33555176 63.99270996 133.61641602 63.39331055 132.87548828 C62.24105044 131.45049726 61.09012458 130.02442609 59.94067383 128.59716797 C59.14439575 127.61321045 59.14439575 127.61321045 58.33203125 126.609375 C57.86039551 126.02478516 57.38875977 125.44019531 56.90283203 124.83789062 C55.51302832 123.20466394 54.04866503 121.69755155 52.51171875 120.203125 Z M-283.48828125 375.203125 C-283.48828125 410.513125 -283.48828125 445.823125 -283.48828125 482.203125 C-280.51828125 483.523125 -277.54828125 484.843125 -274.48828125 486.203125 C-254.13163669 496.01509139 -241.3910719 513.22659561 -233.49609375 533.875 C-226.9702833 555.42535078 -229.02353512 578.68145088 -239.28540039 598.61181641 C-242.40505148 604.3539175 -246.05524595 609.39155727 -250.48828125 614.203125 C-251.55369141 615.37101562 -251.55369141 615.37101562 -252.640625 616.5625 C-261.77747062 626.1329042 -271.43951564 631.17874219 -283.48828125 637.203125 C-283.48828125 664.263125 -283.48828125 691.323125 -283.48828125 719.203125 C-276.76453125 719.739375 -270.04078125 720.275625 -263.11328125 720.828125 C-194.87963881 726.5336972 -127.50091616 736.93697635 -61.23828125 754.30859375 C-60.07320793 754.61301392 -60.07320793 754.61301392 -58.88459778 754.92358398 C-49.04186632 757.53388267 -39.28292413 760.4046556 -29.48828125 763.203125 C-29.48828125 658.923125 -29.48828125 554.643125 -29.48828125 447.203125 C-47.8657432 436.68418447 -47.8657432 436.68418447 -66.73828125 427.390625 C-67.9195459 426.85203857 -69.10081055 426.31345215 -70.31787109 425.75854492 C-79.96524932 421.38299039 -89.65514676 417.14358812 -99.48828125 413.203125 C-100.44847168 412.81560059 -101.40866211 412.42807617 -102.39794922 412.02880859 C-148.27989017 393.61135916 -196.33561668 382.55241213 -245.36328125 376.828125 C-246.07625366 376.74218079 -246.78922607 376.65623657 -247.52380371 376.56768799 C-259.63622245 375.13257229 -271.16210012 375.203125 -283.48828125 375.203125 Z M265.51171875 376.890625 C264.72589417 376.97926819 263.94006958 377.06791138 263.13043213 377.15924072 C247.8103658 378.89147572 232.64133311 381.21528883 217.51171875 384.203125 C216.42375 384.41662598 215.33578125 384.63012695 214.21484375 384.85009766 C176.31711629 392.43757629 139.15195048 404.28363835 103.90039062 420.13525391 C101.44094062 421.23476682 98.97012961 422.30484744 96.49609375 423.37109375 C86.09883118 427.89303954 76.13288455 432.95796563 66.2578125 438.52734375 C61.03762054 441.47041494 55.77265563 444.33352307 50.51171875 447.203125 C50.51171875 551.483125 50.51171875 655.763125 50.51171875 763.203125 C63.38171875 759.573125 76.25171875 755.943125 89.51171875 752.203125 C111.15784214 746.79159415 111.15784214 746.79159415 117.48828125 745.390625 C118.27925201 745.21474854 119.07022278 745.03887207 119.88516235 744.85766602 C161.2606878 735.74347157 203.06476657 729.32995026 245.13671875 724.453125 C245.94603851 724.35793579 246.75535828 724.26274658 247.58920288 724.16467285 C266.52203296 721.96158343 285.49999619 720.70405046 304.51171875 719.203125 C304.51171875 692.143125 304.51171875 665.083125 304.51171875 637.203125 C298.24171875 633.903125 291.97171875 630.603125 285.51171875 627.203125 C275.07232481 619.32433712 275.07232481 619.32433712 273.51171875 616.203125 C272.85171875 616.203125 272.19171875 616.203125 271.51171875 616.203125 C271.269375 615.66429687 271.02703125 615.12546875 270.77734375 614.5703125 C269.19450597 611.60981962 267.24673999 609.03558594 265.26171875 606.328125 C260.57272606 599.70126692 257.24216506 592.8693781 254.51171875 585.203125 C254.17140625 584.25953125 253.83109375 583.3159375 253.48046875 582.34375 C248.80866162 566.33848484 249.76880083 546.73692035 255.51171875 531.203125 C255.80046875 530.31238281 256.08921875 529.42164063 256.38671875 528.50390625 C262.71789171 510.49963314 278.0926917 494.58705825 295.01171875 486.203125 C298.16641813 484.69556954 301.19612614 483.30832254 304.51171875 482.203125 C304.51171875 446.893125 304.51171875 411.583125 304.51171875 375.203125 C291.20899713 375.203125 278.6149348 375.35699531 265.51171875 376.890625 Z M-9.48828125 457.203125 C-9.51086511 496.93305819 -9.52877868 536.66298969 -9.53934658 576.392928 C-9.54059736 581.07827688 -9.54189167 585.76362575 -9.54321289 590.44897461 C-9.5434752 591.38178411 -9.54373751 592.31459361 -9.54400777 593.27567006 C-9.5483648 608.40020188 -9.55625253 623.52472992 -9.56543405 638.6492595 C-9.57476967 654.15642426 -9.58033667 669.66358704 -9.58236974 685.17075449 C-9.58374516 694.74750301 -9.58809676 704.32424085 -9.59619772 713.90098608 C-9.60146405 720.45885808 -9.6030858 727.01672452 -9.60178263 733.57459848 C-9.60113907 737.36400333 -9.60215874 741.15338943 -9.60748672 744.94279099 C-9.61320752 749.04125443 -9.61128247 753.13967743 -9.60853577 757.23814392 C-9.61144861 758.44920695 -9.61436145 759.66026997 -9.61736256 760.90803188 C-9.61537151 761.99684235 -9.61338046 763.08565282 -9.61132908 764.20745754 C-9.6117088 765.15485977 -9.61208852 766.10226199 -9.61247975 767.07837337 C-9.72535898 769.18759382 -9.72535898 769.18759382 -8.48828125 770.203125 C-5.68834528 770.30415755 -2.91359481 770.34282588 -0.11328125 770.3359375 C0.72638184 770.33689423 1.56604492 770.33785095 2.43115234 770.33883667 C4.2099617 770.33951848 5.98877352 770.33766417 7.76757812 770.33349609 C10.50005651 770.32814783 13.23237051 770.33344105 15.96484375 770.33984375 C17.68880245 770.33918297 19.41276104 770.33790181 21.13671875 770.3359375 C21.95962402 770.33796173 22.7825293 770.33998596 23.63037109 770.34207153 C27.37551741 770.6888796 27.37551741 770.6888796 30.51171875 769.203125 C30.60891991 767.5402359 30.6354342 765.87318495 30.63476658 764.20745754 C30.63675763 763.11864707 30.63874868 762.02983661 30.64080006 760.90803188 C30.63788722 759.69696885 30.63497438 758.48590583 30.63197327 757.23814392 C30.63282769 755.96322116 30.63368212 754.6882984 30.63456243 753.37474161 C30.63680979 749.81969872 30.63278284 746.26468567 30.62778437 742.70964658 C30.62348349 738.88208919 30.62492604 735.05453361 30.62568665 731.22697449 C30.62621211 724.59006791 30.62306295 717.95317113 30.61744881 711.31626701 C30.60933686 701.72030641 30.6067189 692.12435056 30.60546082 682.5283869 C30.60326981 666.96122334 30.59660843 651.39406501 30.5871582 635.8269043 C30.57798533 620.700928 30.57090389 605.57495312 30.56665039 590.44897461 C30.56638767 589.51729471 30.56612494 588.58561482 30.56585426 587.62570219 C30.56454926 582.95194261 30.56328554 578.27818301 30.56204236 573.6044234 C30.55166824 534.80398676 30.53377425 496.00355663 30.51171875 457.203125 C17.31171875 457.203125 4.11171875 457.203125 -9.48828125 457.203125 Z M-334.92578125 516.109375 C-343.99214359 528.25830054 -344.99426963 544.03542017 -344.86328125 558.640625 C-344.87488281 559.93033203 -344.88648438 561.22003906 -344.8984375 562.54882812 C-344.85096609 578.34889504 -342.45146137 594.11621891 -331.48828125 606.203125 C-324.43303113 612.0313751 -316.32286677 612.94953735 -307.48828125 612.203125 C-291.74581467 610.29666322 -279.67521037 603.29161422 -269.48828125 591.203125 C-265.03310937 585.49390474 -262.66160113 579.06399758 -260.48828125 572.203125 C-260.29105469 571.59339844 -260.09382813 570.98367188 -259.890625 570.35546875 C-257.14601698 555.67314816 -260.65032679 541.67936264 -268.48828125 529.203125 C-277.44734006 517.1205848 -288.6153716 509.77056293 -303.48828125 507.203125 C-315.60454284 505.93865102 -326.28697929 506.67068397 -334.92578125 516.109375 Z M290.70703125 527.26953125 C281.353661 539.76842993 279.1984528 553.03507123 280.51171875 568.203125 C283.17285014 583.1819484 292.0814403 595.1906806 304.140625 604.046875 C314.45009612 610.97416376 326.30873406 613.08261939 338.51171875 612.203125 C346.05991411 610.64063707 352.09618452 607.49284371 356.63671875 601.140625 C364.47959894 588.57559182 365.89496957 574.46848799 365.82421875 559.953125 C365.8200293 558.77306885 365.81583984 557.5930127 365.81152344 556.37719727 C365.61143826 540.85463176 363.96989035 524.75751269 352.68359375 513.12109375 C345.61972493 506.88303693 337.97937453 506.44421602 328.86328125 506.828125 C313.04075862 507.94287781 300.93298102 515.41597854 290.70703125 527.26953125 Z " fill="#FEFEFE" transform="translate(389.48828125,-0.203125)"/>
<path d="M0 0 C5.20227294 3.02930708 8.4678792 7.97215563 10.3828125 13.609375 C11.50978153 19.60389113 9.7334135 25.23698688 6.58203125 30.359375 C2.7718766 35.34093642 -1.63426378 37.4494288 -7.6875 38.4375 C-13.88310528 38.93731353 -18.73161474 36.97427597 -23.625 33.25 C-27.8942275 28.9807725 -29.81023717 24.769004 -30.37890625 18.7109375 C-30.1909093 12.62868333 -27.72236364 6.73399263 -23.3125 2.5625 C-16.39282322 -2.42229085 -7.90666864 -3.28058718 0 0 Z " fill="#FFFEFF" transform="translate(473.3125,233.4375)"/>
<path d="M0 0 C6.53681194 4.01685478 9.49586451 8.27691706 11.30859375 15.76953125 C11.79037993 21.83298656 9.72530879 27.47550899 6.05859375 32.26953125 C1.5507368 36.67255432 -2.9789838 38.51582132 -9.19140625 39.01953125 C-14.39951636 38.75244868 -19.36399105 36.87897798 -23.30078125 33.4296875 C-28.34342366 27.60098613 -29.20231252 22.79025497 -29.06640625 15.23046875 C-28.27778852 9.21725859 -25.51272512 5.25285424 -20.87109375 1.45703125 C-14.66631423 -2.28141331 -6.65295149 -2.7976007 0 0 Z " fill="#FEFFFE" transform="translate(345.62890625,233.10546875)"/>
</svg>
